#!OML:ASF E:\emotionWalksFemale\Project 1\Capture day 1\Session 1\Female1.ASF
:FULLY-SPECIFIED
:DEGREES
926
root 9.06558 14.8489 2.31096 178.814 -3.54562 -183.308
lowerback 4.95327 0.826792 -1.33826
upperback -0.873738 1.01156 4.685
thorax -3.80037 0.511403 5.55512
lowerneck -0.952704 -3.72544 -7.59848
upperneck 27.467 -17.5765 21.3198
head 11.7887 -9.11712 6.99337
rclavicle -1.3418e-014 1.27222e-014
rhumerus -28.5018 -11.2264 -70.4743
rradius 25.4496
rwrist 33.5365
rhand -11.7134 -55.5432
rfingers 7.12502
rthumb 14.3332 -85.0284
lclavicle -1.3418e-014 1.27222e-014
lhumerus -40.341 -0.819909 89.0884
lradius 32.5131
lwrist -16.5787
lhand -2.58572 -33.7898
lfingers 7.12502
lthumb 23.1115 -5.15593
rfemur -33.6409 31.3129 0.485257
rtibia 21.3108
rfoot -25.9205 -37.482
rtoes 0.718407
lfemur 10.2294 -13.0785 -33.6696
ltibia 30.1566
lfoot -23.7586 1.12653
ltoes 6.77611
927
root 9.09657 14.8553 2.17998 178.862 -3.41745 -183.355
lowerback 4.88502 0.76599 -1.4976
upperback -0.880024 0.922011 4.68331
thorax -3.76167 0.47074 5.65233
lowerneck -1.03305 -3.68387 -7.54482
upperneck 27.51 -17.5064 21.2579
head 11.7961 -9.0793 6.96532
rclavicle 4.47266e-015 -3.49861e-014
rhumerus -28.5027 -10.7269 -70.6122
rradius 25.4932
rwrist 32.9992
rhand -11.4132 -56.0639
rfingers 7.12502
rthumb 14.6224 -85.5284
lclavicle 4.47266e-015 -3.49861e-014
lhumerus -40.3681 -0.970061 89.1496
lradius 32.3361
lwrist -16.6644
lhand -2.59215 -33.8243
lfingers 7.12502
lthumb 23.1053 -5.18968
rfemur -33.3521 30.8012 1.0316
rtibia 21.4179
rfoot -25.102 -36.6929
rtoes -0.470184
lfemur 10.7141 -12.7072 -33.5729
ltibia 30.0189
lfoot -23.0604 1.1107
ltoes 5.19137
928
root 9.12701 14.8605 2.04796 178.851 -3.36449 -183.405
lowerback 4.78411 0.722331 -1.62498
upperback -0.897999 0.857575 4.67874
thorax -3.71841 0.44189 5.72602
lowerneck -0.869159 -3.62907 -7.57263
upperneck 27.4169 -17.4389 21.3361
head 11.7209 -9.06862 7.01606
rclavicle 6.60959e-015 8.5875e-014
rhumerus -28.5589 -10.9738 -70.3792
rradius 25.2397
rwrist 33.5285
rhand -11.6567 -55.647
rfingers 7.12502
rthumb 14.3878 -85.1283
lclavicle 6.60959e-015 8.5875e-014
lhumerus -40.4202 -1.09617 89.2388
lradius 32.12
lwrist -17.0231
lhand -2.7442 -34.0719
lfingers 7.12502
lthumb 22.9594 -5.41914
rfemur -33.0132 30.5908 1.4656
rtibia 21.6032
rfoot -24.5394 -35.9878
rtoes -0.697589
lfemur 11.2495 -12.3837 -33.4803
ltibia 29.8962
lfoot -22.3482 0.838842
ltoes 5.18428
929
root 9.15683 14.8634 1.91322 178.863 -3.28692 -183.588
lowerback 4.70153 0.735545 -1.81212
upperback -0.899193 0.86988 4.60587
thorax -3.67622 0.454328 5.75492
lowerneck -0.992616 -3.6943 -7.64376
upperneck 27.4203 -17.5373 21.3527
head 11.777 -9.10928 7.01477
rclavicle -3.32964e-015 9.54166e-015
rhumerus -28.8107 -11.283 -70.0708
rradius 25.2748
rwrist 34.1035
rhand -12.1159 -54.8516
rfingers 7.12502
rthumb 13.9453 -84.364
lclavicle -3.32964e-015 9.54166e-015
lhumerus -40.4016 -1.18296 89.3119
lradius 32.004
lwrist -17.5252
lhand -2.36888 -34.2267
lfingers 7.12502
lthumb 23.3195 -5.61915
rfemur -32.5591 30.1111 1.91158
rtibia 21.767
rfoot -22.7661 -35.2573
rtoes -4.32229
lfemur 11.7449 -11.979 -33.509
ltibia 29.8065
lfoot -21.5836 0.559299
ltoes 4.53949
930
root 9.18944 14.8709 1.77583 178.91 -3.21621 -183.732
lowerback 4.65166 0.751885 -1.94387
upperback -0.918215 0.89199 4.47469
thorax -3.66996 0.472138 5.6894
lowerneck -1.2387 -3.79901 -7.52115
upperneck 27.5 -17.7271 21.2847
head 11.8841 -9.16891 6.92486
rclavicle 6.4605e-016 5.40694e-014
rhumerus -29.181 -11.1735 -70.0737
rradius 25.6108
rwrist 33.7756
rhand -12.2939 -54.4124
rfingers 7.12502
rthumb 13.7737 -83.9364
lclavicle 6.4605e-016 5.40694e-014
lhumerus -40.439 -1.45423 89.3227
lradius 32.1069
lwrist -17.7562
lhand -1.8677 -34.0746
lfingers 7.12502
lthumb 23.8003 -5.52881
rfemur -32.0629 29.4431 2.49268
rtibia 21.9197
rfoot -20.5864 -34.2661
rtoes -8.42681
lfemur 12.1548 -11.5254 -33.4542
ltibia 29.7251
lfoot -20.5493 0.368636
ltoes 2.87873
931
root 9.22398 14.8852 1.6338 178.896 -3.25135 -183.675
lowerback 4.65151 0.685702 -1.96669
upperback -1.00122 0.805183 4.45545
thorax -3.74634 0.432809 5.68965
lowerneck -1.29492 -3.76087 -7.38782
upperneck 27.6523 -17.7534 21.209
head 11.9442 -9.17907 6.86655
rclavicle -6.60959e-015 -9.22361e-014
rhumerus -29.5492 -10.6659 -70.1511
rradius 25.8667
rwrist 33.1064
rhand -12.2157 -54.1554
rfingers 7.12502
rthumb 13.8491 -83.6743
lclavicle -6.60959e-015 -9.22361e-014
lhumerus -40.7302 -1.58794 89.3421
lradius 32.2383
lwrist -18.0028
lhand -1.5418 -34.0053
lfingers 7.12502
lthumb 24.1128 -5.50051
rfemur -31.53 29.011 3.19994
rtibia 22.0865
rfoot -19.7054 -32.9969
rtoes -6.80456
lfemur 12.6158 -11.1619 -33.1659
ltibia 29.6516
lfoot -19.3715 -0.331034
ltoes 5.42352
932
root 9.2576 14.9011 1.48853 178.842 -3.21056 -183.493
lowerback 4.59001 0.610756 -1.87954
upperback -1.06095 0.706315 4.53392
thorax -3.76252 0.380501 5.73146
lowerneck -1.16959 -3.65998 -7.40993
upperneck 27.6834 -17.6163 21.1893
head 11.9004 -9.1392 6.8901
rclavicle 7.00716e-015 -1.11319e-014
rhumerus -29.7533 -10.2929 -70.0271
rradius 25.6963
rwrist 33.1293
rhand -12.2456 -53.8196
rfingers 7.12502
rthumb 13.8203 -83.3404
lclavicle 7.00716e-015 -1.11319e-014
lhumerus -40.9628 -1.55646 89.4338
lradius 32.1457
lwrist -18.2828
lhand -1.47165 -34.3452
lfingers 7.12502
lthumb 24.1801 -5.84936
rfemur -31.0426 28.7457 4.01546
rtibia 22.2539
rfoot -18.6355 -31.9366
rtoes -4.23611
lfemur 13.134 -10.7673 -32.7522
ltibia 29.6245
lfoot -18.2778 -1.0519
ltoes 8.82677
933
root 9.29162 14.9208 1.34395 178.858 -3.14908 -183.311
lowerback 4.47158 0.569255 -1.77905
upperback -1.08636 0.65196 4.59751
thorax -3.71541 0.348362 5.74563
lowerneck -1.10145 -3.63019 -7.43891
upperneck 27.5637 -17.5308 21.2436
head 11.8276 -9.10709 6.92869
rclavicle -2.23633e-015 7.79236e-014
rhumerus -29.8718 -10.3015 -69.817
rradius 25.4359
rwrist 33.4747
rhand -12.2571 -53.6257
rfingers 7.12502
rthumb 13.8092 -83.1473
lclavicle -2.23633e-015 7.79236e-014
lhumerus -40.9325 -1.7798 89.6277
lradius 32.0493
lwrist -18.2746
lhand -1.28233 -34.2355
lfingers 7.12502
lthumb 24.3616 -5.76396
rfemur -30.6397 28.2781 4.88429
rtibia 22.4414
rfoot -16.3191 -30.9525
rtoes -3.99045
lfemur 13.5488 -10.3732 -32.3387
ltibia 29.6606
lfoot -17.2288 -0.677089
ltoes 4.72504
934
root 9.32499 14.9444 1.19994 178.889 -3.16204 -183.15
lowerback 4.47196 0.522683 -1.71101
upperback -1.17018 0.592038 4.65005
thorax -3.796 0.318135 5.76808
lowerneck -1.09219 -3.62432 -7.40456
upperneck 27.5479 -17.5191 21.2242
head 11.8115 -9.10427 6.91498
rclavicle 1.04859e-014 -7.95139e-015
rhumerus -30.1376 -10.1083 -69.7013
rradius 25.4725
rwrist 33.4083
rhand -12.1063 -53.8466
rfingers 7.12502
rthumb 13.9545 -83.3583
lclavicle 1.04859e-014 -7.95139e-015
lhumerus -40.9248 -2.04152 89.8254
lradius 32.0131
lwrist -18.3556
lhand -0.851456 -33.6067
lfingers 7.12502
lthumb 24.7746 -5.19127
rfemur -30.241 27.6934 5.73034
rtibia 22.6958
rfoot -13.8982 -29.8692
rtoes -2.84428
lfemur 13.8826 -10.0339 -31.953
ltibia 29.7616
lfoot -16.0995 -0.0200717
ltoes -0.225056
935
root 9.3571 14.9693 1.05616 178.892 -3.15908 -182.93
lowerback 4.49763 0.497335 -1.50028
upperback -1.27079 0.568577 4.6734
thorax -3.91023 0.302985 5.67511
lowerneck -1.00329 -3.62774 -7.3272
upperneck 27.5652 -17.5741 21.1955
head 11.8018 -9.14147 6.8842
rclavicle -1.93815e-015 -4.77083e-014
rhumerus -30.4641 -10.0547 -69.5418
rradius 25.4102
rwrist 33.6365
rhand -12.0475 -54.0098
rfingers 7.12502
rthumb 14.0112 -83.5176
lclavicle -1.93815e-015 -4.77083e-014
lhumerus -40.9925 -2.25334 89.9652
lradius 31.8944
lwrist -18.4958
lhand -0.552006 -33.5138
lfingers 7.12502
lthumb 25.0615 -5.13813
rfemur -29.8126 27.2149 6.60851
rtibia 22.9876
rfoot -11.7014 -29.1061
rtoes -1.94558
lfemur 14.1657 -9.68087 -31.4916
ltibia 29.9578
lfoot -14.9656 -0.161893
ltoes 0.628993
936
root 9.38951 14.9929 0.913016 178.916 -3.16751 -182.702
lowerback 4.55014 0.466058 -1.22181
upperback -1.38424 0.542044 4.67298
thorax -4.05169 0.284764 5.51882
lowerneck -1.09163 -3.65616 -7.28943
upperneck 27.7216 -17.7282 21.1592
head 11.91 -9.21579 6.83879
rclavicle -5.81445e-015 -5.56597e-014
rhumerus -30.8397 -10.0353 -69.4296
rradius 25.4454
rwrist 33.7003
rhand -12.0743 -53.9858
rfingers 7.12502
rthumb 13.9854 -83.4953
lclavicle -5.81445e-015 -5.56597e-014
lhumerus -41.0892 -2.55023 90.1175
lradius 31.8602
lwrist -18.4064
lhand -0.368887 -33.6665
lfingers 7.12502
lthumb 25.237 -5.31549
rfemur -29.3319 26.5095 7.53466
rtibia 23.2093
rfoot -9.4701 -28.3005
rtoes -3.57028
lfemur 14.3495 -9.35575 -31.0036
ltibia 30.3007
lfoot -13.5159 -0.747492
ltoes 3.9913
937
root 9.42069 15.0158 0.772794 178.962 -3.13519 -182.497
lowerback 4.63401 0.421922 -0.957469
upperback -1.45936 0.497354 4.67676
thorax -4.16971 0.256347 5.37663
lowerneck -1.39415 -3.68672 -7.25255
upperneck 27.9497 -17.9048 21.1342
head 12.1005 -9.27915 6.78618
rclavicle 1.83876e-015 7.4743e-014
rhumerus -31.1079 -9.7799 -69.4778
rradius 25.7317
rwrist 33.1705
rhand -11.9246 -54.2039
rfingers 7.12502
rthumb 14.1297 -83.7034
lclavicle 1.83876e-015 7.4743e-014
lhumerus -41.0836 -2.79613 90.2429
lradius 31.8314
lwrist -18.4921
lhand -0.420865 -33.5657
lfingers 7.12502
lthumb 25.1872 -5.20768
rfemur -28.8493 25.5448 8.47671
rtibia 23.3415
rfoot -7.36072 -27.2278
rtoes -7.21706
lfemur 14.407 -9.02873 -30.5599
ltibia 30.7758
lfoot -11.4777 -1.29687
ltoes 8.14149
